<svg xmlns="http://www.w3.org/2000/svg" version="1.1" xmlns:xlink="http://www.w3.org/1999/xlink" xmlns:svgjs="http://svgjs.dev/svgjs" width="1500" height="1500" viewBox="0 0 1500 1500"><rect width="1500" height="1500" fill="#ffffff"></rect><g transform="matrix(0.6666666666666666,0,0,0.6666666666666666,249.39393939393938,677.156150172888)"><svg viewBox="0 0 396 58" data-background-color="#ffffff" preserveAspectRatio="xMidYMid meet" height="219" width="1500" xmlns="http://www.w3.org/2000/svg" xmlns:xlink="http://www.w3.org/1999/xlink"><g id="tight-bounds" transform="matrix(1,0,0,1,0.2400000000000091,-0.062032260462359545)"><svg viewBox="0 0 395.52 58.1240645209247" height="58.1240645209247" width="395.52"><g><svg viewBox="0 0 395.52 58.1240645209247" height="58.1240645209247" width="395.52"><g><svg viewBox="0 0 395.52 58.1240645209247" height="58.1240645209247" width="395.52"><g id="textblocktransform"><svg viewBox="0 0 395.52 58.1240645209247" height="58.1240645209247" width="395.52" id="textblock"><g><svg viewBox="0 0 395.52 58.1240645209247" height="58.1240645209247" width="395.52"><g transform="matrix(1,0,0,1,0,0)"><svg width="395.52" viewBox="3.91 -35.86 328.40999999999997 48.26" height="58.1240645209247" data-palette-color="#001f3f"><path d="M11.35-25.29L11.35-1.29Q11.35-0.56 11.07-0.28 10.79 0 10.08 0L10.08 0 5.18 0Q4.49 0 4.2-0.28 3.91-0.56 3.91-1.29L3.91-1.29 3.91-32.23Q3.91-33.67 4.47-34.34 5.03-35.01 6.45-35.01L6.45-35.01 8.72-35.01Q9.96-35.01 11.07-34.68 12.18-34.35 13.44-33.2 14.7-32.06 16.37-29.65 18.04-27.25 20.41-23.1L20.41-23.1Q22.68-19.14 24.06-16.77 25.44-14.4 26.2-13.16 26.95-11.91 27.33-11.38 27.71-10.84 27.95-10.5L27.95-10.5 27.95-31.1Q27.95-31.81 28.17-32.18L28.17-32.18Q29.22-33.79 31.08-35.57L31.08-35.57Q31.45-35.86 31.69-35.86L31.69-35.86Q31.96-35.86 32.28-35.57L32.28-35.57Q33.28-34.64 33.97-33.8 34.67-32.96 35.18-32.18L35.18-32.18Q35.4-31.79 35.4-31.1L35.4-31.1 35.4-2.03Q35.4-0.93 34.99-0.46 34.57 0 33.47 0L33.47 0 31.13 0Q30.08 0 28.98-0.35 27.88-0.71 26.49-1.97 25.1-3.22 23.19-5.88 21.29-8.54 18.6-13.16L18.6-13.16Q16.33-17.09 14.98-19.41 13.62-21.73 12.92-22.91 12.21-24.1 11.89-24.57 11.57-25.05 11.35-25.29L11.35-25.29ZM54.86 0.61L54.86 0.61Q50.73 0.61 47.68-0.72 44.63-2.05 42.94-4.86 41.26-7.67 41.26-12.11L41.26-12.11Q41.26-18.77 44.68-22.19 48.09-25.61 53.76-25.61L53.76-25.61Q57.44-25.61 60-24.29 62.55-22.97 63.88-20.65 65.21-18.33 65.21-15.36L65.21-15.36Q65.21-12.45 63.72-11.3 62.23-10.16 59.37-10.16L59.37-10.16 48.9-10.16Q49.09-7.64 50.74-6.32 52.39-5 55.22-5L55.22-5Q57.47-5 58.82-5.68 60.18-6.35 60.72-6.74L60.72-6.74Q61.18-7.08 61.77-7.06L61.77-7.06Q62.23-7.06 63.1-6.87 63.96-6.69 64.82-6.2L64.82-6.2Q65.43-5.88 65.43-5.32L65.43-5.32Q65.43-5 65.31-4.42L65.31-4.42Q65.23-4.08 65.06-3.43 64.89-2.78 64.62-2.22L64.62-2.22Q64.48-1.95 64.16-1.71L64.16-1.71Q63.67-1.37 62.58-0.81 61.5-0.24 59.62 0.18 57.74 0.61 54.86 0.61ZM48.85-15.16L48.85-15.16 56.81-15.16Q58.05-15.16 58.05-16.31L58.05-16.31Q58.05-18.04 56.97-19.23 55.88-20.41 53.71-20.41L53.71-20.41Q51.34-20.41 50.23-18.9 49.12-17.38 48.85-15.16ZM74.95-1.78L74.95-1.78Q74.24-2.88 73.43-4.85 72.63-6.81 71.85-9.22 71.06-11.62 70.42-14.03 69.77-16.43 69.38-18.44 68.99-20.46 68.99-21.61L68.99-21.61Q68.99-22.09 69.26-22.41L69.26-22.41Q70.38-23.8 72.46-25.32L72.46-25.32Q72.82-25.56 73.12-25.56L73.12-25.56Q73.43-25.56 73.77-25.32L73.77-25.32Q74.9-24.51 75.67-23.8 76.44-23.1 76.97-22.41L76.97-22.41Q77.24-22.09 77.24-21.51L77.24-21.51 77.24-21.63Q77.24-20.12 77.42-18.14 77.61-16.16 77.95-14.06 78.29-11.96 78.77-10.06 79.24-8.15 79.83-6.79L79.83-6.79 79.98-6.79Q80.61-8.15 81.32-10.35 82.03-12.55 82.67-15 83.32-17.46 83.83-19.63 84.35-21.8 84.57-23.07L84.57-23.07Q84.74-24.02 85.33-24.34 85.93-24.66 87.01-24.66L87.01-24.66 89.84-24.66Q91.06-24.66 91.58-24.29 92.11-23.93 92.23-23.07L92.23-23.07Q92.43-21.75 92.94-19.52 93.45-17.29 94.1-14.79 94.75-12.3 95.41-10.13 96.06-7.96 96.53-6.79L96.53-6.79 96.7-6.79Q97.43-8.4 98.09-10.95 98.75-13.5 99.16-16.33 99.58-19.17 99.58-21.61L99.58-21.61 99.58-21.51Q99.58-22.09 99.82-22.41L99.82-22.41Q100.39-23.1 101.14-23.8 101.9-24.51 102.97-25.32L102.97-25.32Q103.32-25.56 103.61-25.56L103.61-25.56Q103.95-25.56 104.24-25.32L104.24-25.32Q105.34-24.51 106.1-23.8 106.86-23.1 107.39-22.41L107.39-22.41Q107.64-22.09 107.64-21.56L107.64-21.56Q107.61-20.36 107.17-18.37 106.73-16.38 106.01-14.01 105.29-11.65 104.43-9.28 103.56-6.91 102.67-4.93 101.78-2.95 101.02-1.78L101.02-1.78Q100.53-1.03 100.17-0.63 99.8-0.24 99.27-0.12 98.75 0 97.72 0L97.72 0 94.97 0Q93.82 0 93.17-0.33 92.52-0.66 91.96-1.78L91.96-1.78Q91.62-2.44 91.13-3.99 90.64-5.54 90.13-7.39 89.62-9.23 89.23-10.84 88.84-12.45 88.72-13.21L88.72-13.21Q88.59-13.94 88.46-14.99 88.33-16.04 88.28-16.65L88.28-16.65 88.15-16.65Q88.13-16.04 88-15 87.86-13.96 87.71-13.18L87.71-13.18Q87.57-12.5 87.18-11.07 86.79-9.64 86.24-7.92 85.69-6.2 85.09-4.57 84.49-2.93 83.95-1.78L83.95-1.78Q83.42-0.66 82.72-0.33 82.03 0 80.51 0L80.51 0 77.68 0Q76.48 0 76.06-0.37 75.63-0.73 74.95-1.78ZM68.99-21.51L68.99-21.66 68.99-21.61Q68.99-21.56 68.99-21.51L68.99-21.51ZM107.64-21.61L107.64-21.61 107.64-21.51 107.64-21.56Q107.64-21.58 107.64-21.61ZM119.6 0.61L119.6 0.61Q116.98 0.61 115.26 0.17 113.54-0.27 112.5-0.89 111.47-1.51 110.88-2.03L110.88-2.03Q110.44-2.44 110.78-2.95L110.78-2.95 113.27-6.64Q113.81-7.42 114.49-6.74L114.49-6.74Q115.2-6.05 116.41-5.41 117.62-4.76 119.43-4.76L119.43-4.76Q121.04-4.76 122.08-5.31 123.11-5.86 123.11-6.91L123.11-6.91Q123.11-7.64 122.65-8.11 122.18-8.57 121.01-9.06 119.84-9.55 117.74-10.3L117.74-10.3Q114.64-11.43 113.05-13.01 111.47-14.6 111.47-17.65L111.47-17.65Q111.47-20.46 113.02-22.22 114.57-23.97 117-24.79 119.43-25.61 122.06-25.61L122.06-25.61Q125.41-25.61 126.76-24.99 128.12-24.37 128.51-24.02L128.51-24.02Q128.87-23.71 129.02-23.29L129.02-23.29Q129.34-22.34 129.51-20.78L129.51-20.78Q129.61-19.87 129.05-19.58L129.05-19.58Q128.75-19.41 128.12-19.21 127.48-19.02 126.85-18.87 126.21-18.73 125.9-18.73L125.9-18.73Q125.8-18.73 125.69-18.79 125.58-18.85 125.31-19.09L125.31-19.09Q124.99-19.41 124.22-19.82 123.45-20.24 122.11-20.24L122.11-20.24Q120.79-20.24 119.9-19.81 119.01-19.38 119.01-18.31L119.01-18.31Q119.01-17.14 120.15-16.55 121.28-15.97 123.89-15.04L123.89-15.04Q125.94-14.33 127.47-13.49 129-12.65 129.83-11.29 130.66-9.94 130.66-7.64L130.66-7.64Q130.66-4.66 129.03-2.84 127.41-1.03 124.88-0.21 122.36 0.61 119.6 0.61ZM150.72-5.98L150.72-5.98Q152.5-5.98 153.52-6.35 154.53-6.71 155.09-7.25 155.65-7.79 156.07-8.33L156.07-8.33Q156.46-8.81 156.72-9.06 156.97-9.3 157.44-9.4L157.44-9.4Q157.83-9.52 158.69-9.56 159.56-9.59 160.43-9.59 161.29-9.59 161.64-9.55L161.64-9.55Q162.15-9.52 162.34-9.35L162.34-9.35Q162.54-9.18 162.59-8.62L162.59-8.62Q162.66-7.84 162.67-6.76 162.69-5.69 162.64-4.91L162.64-4.91Q162.61-4.66 162.55-4.49 162.49-4.32 162.29-3.98L162.29-3.98Q162.05-3.59 161.34-2.84 160.63-2.1 159.27-1.31 157.9-0.51 155.74 0.05 153.58 0.61 150.43 0.61L150.43 0.61Q147.06 0.61 144.13-0.26 141.2-1.12 138.99-3.17 136.78-5.22 135.55-8.72 134.32-12.21 134.32-17.43L134.32-17.43Q134.32-23.24 136.33-27.31 138.34-31.37 142.06-33.5 145.77-35.62 150.84-35.62L150.84-35.62Q154.41-35.62 156.57-34.89 158.73-34.16 159.85-33.17 160.98-32.18 161.44-31.45L161.44-31.45Q161.61-31.18 161.68-30.97 161.76-30.76 161.78-30.32L161.78-30.32Q161.86-29.74 161.82-28.61 161.78-27.49 161.64-26.64L161.64-26.64Q161.54-26.1 161.32-25.93L161.32-25.93Q161.22-25.83 160.98-25.76 160.73-25.68 160.24-25.68L160.24-25.68Q159.46-25.68 158.49-25.74 157.51-25.81 157.02-25.88L157.02-25.88Q156.44-25.98 156.17-26.16 155.9-26.34 155.63-26.73L155.63-26.73Q155.19-27.37 154.12-28.2 153.04-29.03 150.58-29.03L150.58-29.03Q147.11-29.03 144.86-26.35 142.62-23.68 142.62-17.7L142.62-17.7Q142.62-11.74 144.97-8.86 147.33-5.98 150.72-5.98ZM175.16-22.17L175.16-20.36 175.26-20.36Q177.09-25.44 181.85-25.44L181.85-25.44Q182.46-25.44 182.85-25.38 183.24-25.32 183.39-25.27L183.39-25.27Q183.75-25.15 183.75-24.71L183.75-24.71 183.75-18.82Q183.75-18.07 182.87-18.41L182.87-18.41Q182.58-18.53 182.03-18.66 181.48-18.8 180.51-18.8L180.51-18.8Q177.99-18.8 176.57-16.96 175.16-15.11 175.16-11.94L175.16-11.94 175.16-1.29Q175.16-0.56 174.85-0.28 174.55 0 173.82 0L173.82 0 168.79 0Q168.05 0 167.75-0.28 167.44-0.56 167.44-1.29L167.44-1.29 167.44-21.75Q167.44-22.34 167.69-22.66L167.69-22.66Q168.2-23.34 168.92-24.05 169.64-24.76 170.69-25.56L170.69-25.56Q170.89-25.71 171.08-25.76 171.28-25.81 171.42-25.81L171.42-25.81Q171.76-25.81 172.11-25.56L172.11-25.56Q174.13-23.97 174.94-22.85L174.94-22.85Q175.16-22.56 175.16-22.17L175.16-22.17ZM193.86 0.61L193.86 0.61Q190.27 0.61 188.16-1.4 186.04-3.42 186.04-6.96L186.04-6.96Q186.04-8.79 186.72-10.36 187.39-11.94 189.06-13.15 190.73-14.36 193.75-15.09 196.76-15.82 201.45-15.94L201.45-15.94Q201.45-18.16 200.34-19.14 199.23-20.12 197.01-20.12L197.01-20.12Q195-20.12 193.74-19.43 192.47-18.75 192.15-18.51L192.15-18.51Q191.81-18.21 191.32-18.29L191.32-18.29Q190.66-18.38 189.91-18.63 189.17-18.87 188.32-19.19L188.32-19.19Q188.19-19.24 188.05-19.35 187.9-19.46 187.88-19.68L187.88-19.68Q187.88-19.8 187.9-19.98 187.92-20.17 188.02-20.65L188.02-20.65Q188.12-21.14 188.32-21.86 188.51-22.58 188.68-22.97L188.68-22.97Q188.9-23.39 189.41-23.75L189.41-23.75Q189.83-24.1 191.93-24.85 194.03-25.61 198.01-25.61L198.01-25.61Q208.97-25.61 208.97-14.94L208.97-14.94 208.97-1.12Q208.97-0.66 208.71-0.33 208.46 0 207.85 0L207.85 0 204.18 0Q203.79 0 203.49-0.11 203.18-0.22 202.91-0.54L202.91-0.54 201.4-2.49 201.23-2.49Q200.11-0.85 198.21-0.12 196.32 0.61 193.86 0.61ZM196.54-5.05L196.54-5.05Q198.79-5.05 199.94-6.2 201.08-7.35 201.4-8.57L201.4-8.57 201.4-11.28Q198.01-11.28 196.31-10.75 194.61-10.23 194.05-9.39 193.49-8.54 193.49-7.57L193.49-7.57Q193.49-6.15 194.37-5.6 195.25-5.05 196.54-5.05ZM231.11-25.61L231.11-25.61Q234.67-25.61 236.98-24.01 239.29-22.41 240.42-19.62 241.56-16.82 241.56-13.21L241.56-13.21Q241.56-9.3 240.23-6.18 238.9-3.05 236.31-1.22 233.72 0.61 229.89 0.61L229.89 0.61Q227.91 0.61 226.63 0.16 225.35-0.29 224.58-0.92 223.81-1.54 223.37-2.05L223.37-2.05 223.27-2.05 223.27 8.35Q223.27 8.94 223.03 9.25L223.03 9.25Q222 10.6 220.03 12.16L220.03 12.16Q219.68 12.4 219.42 12.4L219.42 12.4Q219.12 12.4 218.81 12.16L218.81 12.16Q217.76 11.35 217.04 10.64 216.32 9.94 215.8 9.25L215.8 9.25Q215.56 8.94 215.56 8.35L215.56 8.35 215.56-21.75Q215.56-22.34 215.8-22.66L215.8-22.66Q216.32-23.34 217.04-24.05 217.76-24.76 218.81-25.56L218.81-25.56Q219.12-25.81 219.46-25.81L219.46-25.81Q219.78-25.81 220.12-25.56L220.12-25.56Q221.15-24.76 221.88-24.02 222.61-23.29 223.18-22.51L223.18-22.51 223.3-22.51Q223.71-23.02 224.57-23.75 225.42-24.49 227-25.05 228.57-25.61 231.11-25.61ZM228.11-5.62L228.11-5.62Q230.74-5.62 232.2-7.46 233.65-9.3 233.65-12.79L233.65-12.79Q233.65-19.38 228.23-19.38L228.23-19.38Q225.93-19.38 224.84-18.44 223.74-17.5 223.27-16.46L223.27-16.46 223.27-11.16Q223.27-8.79 224.49-7.2 225.71-5.62 228.11-5.62ZM259.06 0.61L259.06 0.61Q254.94 0.61 251.88-0.72 248.83-2.05 247.15-4.86 245.46-7.67 245.46-12.11L245.46-12.11Q245.46-18.77 248.88-22.19 252.3-25.61 257.96-25.61L257.96-25.61Q261.65-25.61 264.2-24.29 266.75-22.97 268.08-20.65 269.41-18.33 269.41-15.36L269.41-15.36Q269.41-12.45 267.92-11.3 266.44-10.16 263.58-10.16L263.58-10.16 253.11-10.16Q253.3-7.64 254.95-6.32 256.6-5 259.43-5L259.43-5Q261.67-5 263.03-5.68 264.38-6.35 264.92-6.74L264.92-6.74Q265.39-7.08 265.97-7.06L265.97-7.06Q266.44-7.06 267.3-6.87 268.17-6.69 269.02-6.2L269.02-6.2Q269.63-5.88 269.63-5.32L269.63-5.32Q269.63-5 269.51-4.42L269.51-4.42Q269.44-4.08 269.27-3.43 269.1-2.78 268.83-2.22L268.83-2.22Q268.68-1.95 268.36-1.71L268.36-1.71Q267.88-1.37 266.79-0.81 265.7-0.24 263.82 0.18 261.94 0.61 259.06 0.61ZM253.06-15.16L253.06-15.16 261.02-15.16Q262.26-15.16 262.26-16.31L262.26-16.31Q262.26-18.04 261.17-19.23 260.09-20.41 257.91-20.41L257.91-20.41Q255.55-20.41 254.44-18.9 253.32-17.38 253.06-15.16ZM273.07-4.42L273.07-4.42Q273.07-4.76 273.29-5.02 273.51-5.27 273.85-5.71L273.85-5.71Q274.61-6.57 275.6-7.51 276.59-8.45 277.59-9.33L277.59-9.33Q278.22-9.84 278.54-9.84L278.54-9.84Q278.83-9.84 279.52-9.33L279.52-9.33Q281.64-7.52 283.21-5.71L283.21-5.71Q283.55-5.3 283.77-5.03 283.99-4.76 283.99-4.42L283.99-4.42Q283.99-4.08 283.75-3.81 283.52-3.54 283.18-3.08L283.18-3.08Q282.45-2.25 281.48-1.32 280.52-0.39 279.52 0.49L279.52 0.49Q278.88 1 278.54 1L278.54 1Q278.25 1 277.54 0.49L277.54 0.49Q276.47-0.39 275.54-1.33 274.61-2.27 273.85-3.15L273.85-3.15Q273.51-3.56 273.29-3.82 273.07-4.08 273.07-4.42ZM308.32-33.08L308.32-33.08Q309.67-31.2 311.07-28.23 312.48-25.27 313.79-21.73 315.11-18.19 316.17-14.49 317.24-10.79 317.92-7.37 318.6-3.96 318.7-1.29L318.7-1.29Q318.73 0 317.53 0L317.53 0 311.62 0Q310.47 0 310.42-1.15L310.42-1.15Q310.33-3.88 309.55-7.79L309.55-7.79 296.22-7.79Q295.53-3.98 295.43-1.15L295.43-1.15Q295.39 0 294.19 0L294.19 0 288.4 0Q287.96 0 287.67-0.26 287.38-0.51 287.4-1.15L287.4-1.15Q287.52-3.86 288.2-7.31 288.87-10.77 289.94-14.48 291.02-18.19 292.33-21.74 293.65-25.29 295.07-28.25 296.48-31.2 297.83-33.08L297.83-33.08Q298.53-34.08 299.33-34.55 300.12-35.01 301.29-35.01L301.29-35.01 304.81-35.01Q306.01-35.01 306.81-34.55 307.62-34.08 308.32-33.08ZM302.95-27.29L302.81-27.29Q301.2-24.73 299.85-21.17 298.51-17.6 297.53-13.84L297.53-13.84 308.13-13.84Q307.1-17.6 305.76-21.17 304.42-24.73 302.95-27.29L302.95-27.29ZM332.32-31.1L332.32-1.29Q332.32-0.56 332.02-0.28 331.71 0 330.98 0L330.98 0 325.78 0Q325.05 0 324.74-0.28 324.44-0.56 324.44-1.29L324.44-1.29 324.44-31.1Q324.44-31.81 324.68-32.18L324.68-32.18Q325.78-33.79 327.76-35.57L327.76-35.57Q328.12-35.86 328.39-35.86L328.39-35.86Q328.68-35.86 329-35.57L329-35.57Q330.08-34.64 330.81-33.8 331.54-32.96 332.08-32.18L332.08-32.18Q332.32-31.79 332.32-31.1L332.32-31.1Z" opacity="1" transform="matrix(1,0,0,1,0,0)" fill="#001f3f" class="wordmark-text-0" data-fill-palette-color="primary" id="text-0"></path></svg></g></svg></g></svg></g></svg></g></svg></g><defs></defs></svg><rect width="395.52" height="58.1240645209247" fill="none" stroke="none" visibility="hidden"></rect></g></svg></g></svg>